<?xml version="1.0" encoding="utf-8"?>
<svg xmlns="http://www.w3.org/2000/svg" xmlns:xlink="http://www.w3.org/1999/xlink" width="600" height="400" viewBox="0 0 2400 1600">
<defs>
  <clipPath id="clip570">
    <rect x="0" y="0" width="2400" height="1600"/>
  </clipPath>
</defs>
<path clip-path="url(#clip570)" d="
M0 1600 L2400 1600 L2400 0 L0 0  Z
  " fill="#ffffff" fill-rule="evenodd" fill-opacity="1"/>
<defs>
  <clipPath id="clip571">
    <rect x="480" y="0" width="1681" height="1600"/>
  </clipPath>
</defs>
<path clip-path="url(#clip570)" d="
M156.598 1486.45 L2352.76 1486.45 L2352.76 47.2441 L156.598 47.2441  Z
  " fill="#ffffff" fill-rule="evenodd" fill-opacity="1"/>
<defs>
  <clipPath id="clip572">
    <rect x="156" y="47" width="2197" height="1440"/>
  </clipPath>
</defs>
<polyline clip-path="url(#clip572)" style="stroke:#000000; stroke-linecap:butt; stroke-linejoin:round; stroke-width:2; stroke-opacity:0.1; fill:none" points="
  218.754,1486.45 218.754,47.2441 
  "/>
<polyline clip-path="url(#clip572)" style="stroke:#000000; stroke-linecap:butt; stroke-linejoin:round; stroke-width:2; stroke-opacity:0.1; fill:none" points="
  736.715,1486.45 736.715,47.2441 
  "/>
<polyline clip-path="url(#clip572)" style="stroke:#000000; stroke-linecap:butt; stroke-linejoin:round; stroke-width:2; stroke-opacity:0.1; fill:none" points="
  1254.68,1486.45 1254.68,47.2441 
  "/>
<polyline clip-path="url(#clip572)" style="stroke:#000000; stroke-linecap:butt; stroke-linejoin:round; stroke-width:2; stroke-opacity:0.1; fill:none" points="
  1772.64,1486.45 1772.64,47.2441 
  "/>
<polyline clip-path="url(#clip572)" style="stroke:#000000; stroke-linecap:butt; stroke-linejoin:round; stroke-width:2; stroke-opacity:0.1; fill:none" points="
  2290.6,1486.45 2290.6,47.2441 
  "/>
<polyline clip-path="url(#clip570)" style="stroke:#000000; stroke-linecap:butt; stroke-linejoin:round; stroke-width:4; stroke-opacity:1; fill:none" points="
  156.598,1486.45 2352.76,1486.45 
  "/>
<polyline clip-path="url(#clip570)" style="stroke:#000000; stroke-linecap:butt; stroke-linejoin:round; stroke-width:4; stroke-opacity:1; fill:none" points="
  218.754,1486.45 218.754,1467.55 
  "/>
<polyline clip-path="url(#clip570)" style="stroke:#000000; stroke-linecap:butt; stroke-linejoin:round; stroke-width:4; stroke-opacity:1; fill:none" points="
  736.715,1486.45 736.715,1467.55 
  "/>
<polyline clip-path="url(#clip570)" style="stroke:#000000; stroke-linecap:butt; stroke-linejoin:round; stroke-width:4; stroke-opacity:1; fill:none" points="
  1254.68,1486.45 1254.68,1467.55 
  "/>
<polyline clip-path="url(#clip570)" style="stroke:#000000; stroke-linecap:butt; stroke-linejoin:round; stroke-width:4; stroke-opacity:1; fill:none" points="
  1772.64,1486.45 1772.64,1467.55 
  "/>
<polyline clip-path="url(#clip570)" style="stroke:#000000; stroke-linecap:butt; stroke-linejoin:round; stroke-width:4; stroke-opacity:1; fill:none" points="
  2290.6,1486.45 2290.6,1467.55 
  "/>
<path clip-path="url(#clip570)" d="M181.057 1517.37 Q177.446 1517.37 175.617 1520.93 Q173.812 1524.47 173.812 1531.6 Q173.812 1538.71 175.617 1542.27 Q177.446 1545.82 181.057 1545.82 Q184.691 1545.82 186.497 1542.27 Q188.326 1538.71 188.326 1531.6 Q188.326 1524.47 186.497 1520.93 Q184.691 1517.37 181.057 1517.37 M181.057 1513.66 Q186.867 1513.66 189.923 1518.27 Q193.001 1522.85 193.001 1531.6 Q193.001 1540.33 189.923 1544.94 Q186.867 1549.52 181.057 1549.52 Q175.247 1549.52 172.168 1544.94 Q169.113 1540.33 169.113 1531.6 Q169.113 1522.85 172.168 1518.27 Q175.247 1513.66 181.057 1513.66 Z" fill="#000000" fill-rule="evenodd" fill-opacity="1" /><path clip-path="url(#clip570)" d="M201.219 1542.97 L206.103 1542.97 L206.103 1548.85 L201.219 1548.85 L201.219 1542.97 Z" fill="#000000" fill-rule="evenodd" fill-opacity="1" /><path clip-path="url(#clip570)" d="M226.288 1517.37 Q222.677 1517.37 220.849 1520.93 Q219.043 1524.47 219.043 1531.6 Q219.043 1538.71 220.849 1542.27 Q222.677 1545.82 226.288 1545.82 Q229.923 1545.82 231.728 1542.27 Q233.557 1538.71 233.557 1531.6 Q233.557 1524.47 231.728 1520.93 Q229.923 1517.37 226.288 1517.37 M226.288 1513.66 Q232.098 1513.66 235.154 1518.27 Q238.233 1522.85 238.233 1531.6 Q238.233 1540.33 235.154 1544.94 Q232.098 1549.52 226.288 1549.52 Q220.478 1549.52 217.399 1544.94 Q214.344 1540.33 214.344 1531.6 Q214.344 1522.85 217.399 1518.27 Q220.478 1513.66 226.288 1513.66 Z" fill="#000000" fill-rule="evenodd" fill-opacity="1" /><path clip-path="url(#clip570)" d="M256.45 1517.37 Q252.839 1517.37 251.01 1520.93 Q249.205 1524.47 249.205 1531.6 Q249.205 1538.71 251.01 1542.27 Q252.839 1545.82 256.45 1545.82 Q260.084 1545.82 261.89 1542.27 Q263.719 1538.71 263.719 1531.6 Q263.719 1524.47 261.89 1520.93 Q260.084 1517.37 256.45 1517.37 M256.45 1513.66 Q262.26 1513.66 265.316 1518.27 Q268.395 1522.85 268.395 1531.6 Q268.395 1540.33 265.316 1544.94 Q262.26 1549.52 256.45 1549.52 Q250.64 1549.52 247.561 1544.94 Q244.506 1540.33 244.506 1531.6 Q244.506 1522.85 247.561 1518.27 Q250.64 1513.66 256.45 1513.66 Z" fill="#000000" fill-rule="evenodd" fill-opacity="1" /><path clip-path="url(#clip570)" d="M699.516 1517.37 Q695.905 1517.37 694.077 1520.93 Q692.271 1524.47 692.271 1531.6 Q692.271 1538.71 694.077 1542.27 Q695.905 1545.82 699.516 1545.82 Q703.151 1545.82 704.956 1542.27 Q706.785 1538.71 706.785 1531.6 Q706.785 1524.47 704.956 1520.93 Q703.151 1517.37 699.516 1517.37 M699.516 1513.66 Q705.327 1513.66 708.382 1518.27 Q711.461 1522.85 711.461 1531.6 Q711.461 1540.33 708.382 1544.94 Q705.327 1549.52 699.516 1549.52 Q693.706 1549.52 690.628 1544.94 Q687.572 1540.33 687.572 1531.6 Q687.572 1522.85 690.628 1518.27 Q693.706 1513.66 699.516 1513.66 Z" fill="#000000" fill-rule="evenodd" fill-opacity="1" /><path clip-path="url(#clip570)" d="M719.678 1542.97 L724.563 1542.97 L724.563 1548.85 L719.678 1548.85 L719.678 1542.97 Z" fill="#000000" fill-rule="evenodd" fill-opacity="1" /><path clip-path="url(#clip570)" d="M738.776 1544.91 L755.095 1544.91 L755.095 1548.85 L733.151 1548.85 L733.151 1544.91 Q735.813 1542.16 740.396 1537.53 Q745.002 1532.88 746.183 1531.53 Q748.428 1529.01 749.308 1527.27 Q750.211 1525.51 750.211 1523.82 Q750.211 1521.07 748.266 1519.33 Q746.345 1517.6 743.243 1517.6 Q741.044 1517.6 738.59 1518.36 Q736.16 1519.13 733.382 1520.68 L733.382 1515.95 Q736.206 1514.82 738.66 1514.24 Q741.113 1513.66 743.151 1513.66 Q748.521 1513.66 751.715 1516.35 Q754.91 1519.03 754.91 1523.52 Q754.91 1525.65 754.1 1527.57 Q753.312 1529.47 751.206 1532.07 Q750.627 1532.74 747.525 1535.95 Q744.424 1539.15 738.776 1544.91 Z" fill="#000000" fill-rule="evenodd" fill-opacity="1" /><path clip-path="url(#clip570)" d="M764.956 1514.29 L783.312 1514.29 L783.312 1518.22 L769.238 1518.22 L769.238 1526.7 Q770.257 1526.35 771.275 1526.19 Q772.294 1526 773.312 1526 Q779.099 1526 782.479 1529.17 Q785.859 1532.34 785.859 1537.76 Q785.859 1543.34 782.386 1546.44 Q778.914 1549.52 772.595 1549.52 Q770.419 1549.52 768.15 1549.15 Q765.905 1548.78 763.498 1548.04 L763.498 1543.34 Q765.581 1544.47 767.803 1545.03 Q770.025 1545.58 772.502 1545.58 Q776.507 1545.58 778.845 1543.48 Q781.183 1541.37 781.183 1537.76 Q781.183 1534.15 778.845 1532.04 Q776.507 1529.94 772.502 1529.94 Q770.627 1529.94 768.752 1530.35 Q766.9 1530.77 764.956 1531.65 L764.956 1514.29 Z" fill="#000000" fill-rule="evenodd" fill-opacity="1" /><path clip-path="url(#clip570)" d="M1216.98 1517.37 Q1213.37 1517.37 1211.54 1520.93 Q1209.74 1524.47 1209.74 1531.6 Q1209.74 1538.71 1211.54 1542.27 Q1213.37 1545.82 1216.98 1545.82 Q1220.61 1545.82 1222.42 1542.27 Q1224.25 1538.71 1224.25 1531.6 Q1224.25 1524.47 1222.42 1520.93 Q1220.61 1517.37 1216.98 1517.37 M1216.98 1513.66 Q1222.79 1513.66 1225.85 1518.27 Q1228.92 1522.85 1228.92 1531.6 Q1228.92 1540.33 1225.85 1544.94 Q1222.79 1549.52 1216.98 1549.52 Q1211.17 1549.52 1208.09 1544.94 Q1205.04 1540.33 1205.04 1531.6 Q1205.04 1522.85 1208.09 1518.27 Q1211.17 1513.66 1216.98 1513.66 Z" fill="#000000" fill-rule="evenodd" fill-opacity="1" /><path clip-path="url(#clip570)" d="M1237.14 1542.97 L1242.03 1542.97 L1242.03 1548.85 L1237.14 1548.85 L1237.14 1542.97 Z" fill="#000000" fill-rule="evenodd" fill-opacity="1" /><path clip-path="url(#clip570)" d="M1252.26 1514.29 L1270.61 1514.29 L1270.61 1518.22 L1256.54 1518.22 L1256.54 1526.7 Q1257.56 1526.35 1258.58 1526.19 Q1259.6 1526 1260.61 1526 Q1266.4 1526 1269.78 1529.17 Q1273.16 1532.34 1273.16 1537.76 Q1273.16 1543.34 1269.69 1546.44 Q1266.22 1549.52 1259.9 1549.52 Q1257.72 1549.52 1255.45 1549.15 Q1253.21 1548.78 1250.8 1548.04 L1250.8 1543.34 Q1252.88 1544.47 1255.11 1545.03 Q1257.33 1545.58 1259.8 1545.58 Q1263.81 1545.58 1266.15 1543.48 Q1268.48 1541.37 1268.48 1537.76 Q1268.48 1534.15 1266.15 1532.04 Q1263.81 1529.94 1259.8 1529.94 Q1257.93 1529.94 1256.05 1530.35 Q1254.2 1530.77 1252.26 1531.65 L1252.26 1514.29 Z" fill="#000000" fill-rule="evenodd" fill-opacity="1" /><path clip-path="url(#clip570)" d="M1292.37 1517.37 Q1288.76 1517.37 1286.93 1520.93 Q1285.13 1524.47 1285.13 1531.6 Q1285.13 1538.71 1286.93 1542.27 Q1288.76 1545.82 1292.37 1545.82 Q1296.01 1545.82 1297.81 1542.27 Q1299.64 1538.71 1299.64 1531.6 Q1299.64 1524.47 1297.81 1520.93 Q1296.01 1517.37 1292.37 1517.37 M1292.37 1513.66 Q1298.18 1513.66 1301.24 1518.27 Q1304.32 1522.85 1304.32 1531.6 Q1304.32 1540.33 1301.24 1544.94 Q1298.18 1549.52 1292.37 1549.52 Q1286.56 1549.52 1283.48 1544.94 Q1280.43 1540.33 1280.43 1531.6 Q1280.43 1522.85 1283.48 1518.27 Q1286.56 1513.66 1292.37 1513.66 Z" fill="#000000" fill-rule="evenodd" fill-opacity="1" /><path clip-path="url(#clip570)" d="M1735.44 1517.37 Q1731.83 1517.37 1730 1520.93 Q1728.19 1524.47 1728.19 1531.6 Q1728.19 1538.71 1730 1542.27 Q1731.83 1545.82 1735.44 1545.82 Q1739.07 1545.82 1740.88 1542.27 Q1742.71 1538.71 1742.71 1531.6 Q1742.71 1524.47 1740.88 1520.93 Q1739.07 1517.37 1735.44 1517.37 M1735.44 1513.66 Q1741.25 1513.66 1744.31 1518.27 Q1747.38 1522.85 1747.38 1531.6 Q1747.38 1540.33 1744.31 1544.94 Q1741.25 1549.52 1735.44 1549.52 Q1729.63 1549.52 1726.55 1544.94 Q1723.5 1540.33 1723.5 1531.6 Q1723.5 1522.85 1726.55 1518.27 Q1729.63 1513.66 1735.44 1513.66 Z" fill="#000000" fill-rule="evenodd" fill-opacity="1" /><path clip-path="url(#clip570)" d="M1755.6 1542.97 L1760.49 1542.97 L1760.49 1548.85 L1755.6 1548.85 L1755.6 1542.97 Z" fill="#000000" fill-rule="evenodd" fill-opacity="1" /><path clip-path="url(#clip570)" d="M1769.49 1514.29 L1791.71 1514.29 L1791.71 1516.28 L1779.17 1548.85 L1774.28 1548.85 L1786.09 1518.22 L1769.49 1518.22 L1769.49 1514.29 Z" fill="#000000" fill-rule="evenodd" fill-opacity="1" /><path clip-path="url(#clip570)" d="M1800.88 1514.29 L1819.24 1514.29 L1819.24 1518.22 L1805.16 1518.22 L1805.16 1526.7 Q1806.18 1526.35 1807.2 1526.19 Q1808.22 1526 1809.24 1526 Q1815.02 1526 1818.4 1529.17 Q1821.78 1532.34 1821.78 1537.76 Q1821.78 1543.34 1818.31 1546.44 Q1814.84 1549.52 1808.52 1549.52 Q1806.34 1549.52 1804.07 1549.15 Q1801.83 1548.78 1799.42 1548.04 L1799.42 1543.34 Q1801.5 1544.47 1803.73 1545.03 Q1805.95 1545.58 1808.43 1545.58 Q1812.43 1545.58 1814.77 1543.48 Q1817.11 1541.37 1817.11 1537.76 Q1817.11 1534.15 1814.77 1532.04 Q1812.43 1529.94 1808.43 1529.94 Q1806.55 1529.94 1804.68 1530.35 Q1802.82 1530.77 1800.88 1531.65 L1800.88 1514.29 Z" fill="#000000" fill-rule="evenodd" fill-opacity="1" /><path clip-path="url(#clip570)" d="M2242.67 1544.91 L2250.31 1544.91 L2250.31 1518.55 L2242 1520.21 L2242 1515.95 L2250.27 1514.29 L2254.94 1514.29 L2254.94 1544.91 L2262.58 1544.91 L2262.58 1548.85 L2242.67 1548.85 L2242.67 1544.91 Z" fill="#000000" fill-rule="evenodd" fill-opacity="1" /><path clip-path="url(#clip570)" d="M2272.02 1542.97 L2276.91 1542.97 L2276.91 1548.85 L2272.02 1548.85 L2272.02 1542.97 Z" fill="#000000" fill-rule="evenodd" fill-opacity="1" /><path clip-path="url(#clip570)" d="M2297.09 1517.37 Q2293.48 1517.37 2291.65 1520.93 Q2289.85 1524.47 2289.85 1531.6 Q2289.85 1538.71 2291.65 1542.27 Q2293.48 1545.82 2297.09 1545.82 Q2300.73 1545.82 2302.53 1542.27 Q2304.36 1538.71 2304.36 1531.6 Q2304.36 1524.47 2302.53 1520.93 Q2300.73 1517.37 2297.09 1517.37 M2297.09 1513.66 Q2302.9 1513.66 2305.96 1518.27 Q2309.04 1522.85 2309.04 1531.6 Q2309.04 1540.33 2305.96 1544.94 Q2302.9 1549.52 2297.09 1549.52 Q2291.28 1549.52 2288.2 1544.94 Q2285.15 1540.33 2285.15 1531.6 Q2285.15 1522.85 2288.2 1518.27 Q2291.28 1513.66 2297.09 1513.66 Z" fill="#000000" fill-rule="evenodd" fill-opacity="1" /><path clip-path="url(#clip570)" d="M2327.26 1517.37 Q2323.64 1517.37 2321.82 1520.93 Q2320.01 1524.47 2320.01 1531.6 Q2320.01 1538.71 2321.82 1542.27 Q2323.64 1545.82 2327.26 1545.82 Q2330.89 1545.82 2332.7 1542.27 Q2334.52 1538.71 2334.52 1531.6 Q2334.52 1524.47 2332.7 1520.93 Q2330.89 1517.37 2327.26 1517.37 M2327.26 1513.66 Q2333.07 1513.66 2336.12 1518.27 Q2339.2 1522.85 2339.2 1531.6 Q2339.2 1540.33 2336.12 1544.94 Q2333.07 1549.52 2327.26 1549.52 Q2321.45 1549.52 2318.37 1544.94 Q2315.31 1540.33 2315.31 1531.6 Q2315.31 1522.85 2318.37 1518.27 Q2321.45 1513.66 2327.26 1513.66 Z" fill="#000000" fill-rule="evenodd" fill-opacity="1" /><polyline clip-path="url(#clip572)" style="stroke:#000000; stroke-linecap:butt; stroke-linejoin:round; stroke-width:2; stroke-opacity:0.1; fill:none" points="
  156.598,1371.76 2352.76,1371.76 
  "/>
<polyline clip-path="url(#clip572)" style="stroke:#000000; stroke-linecap:butt; stroke-linejoin:round; stroke-width:2; stroke-opacity:0.1; fill:none" points="
  156.598,1182.31 2352.76,1182.31 
  "/>
<polyline clip-path="url(#clip572)" style="stroke:#000000; stroke-linecap:butt; stroke-linejoin:round; stroke-width:2; stroke-opacity:0.1; fill:none" points="
  156.598,992.871 2352.76,992.871 
  "/>
<polyline clip-path="url(#clip572)" style="stroke:#000000; stroke-linecap:butt; stroke-linejoin:round; stroke-width:2; stroke-opacity:0.1; fill:none" points="
  156.598,803.428 2352.76,803.428 
  "/>
<polyline clip-path="url(#clip572)" style="stroke:#000000; stroke-linecap:butt; stroke-linejoin:round; stroke-width:2; stroke-opacity:0.1; fill:none" points="
  156.598,613.985 2352.76,613.985 
  "/>
<polyline clip-path="url(#clip572)" style="stroke:#000000; stroke-linecap:butt; stroke-linejoin:round; stroke-width:2; stroke-opacity:0.1; fill:none" points="
  156.598,424.541 2352.76,424.541 
  "/>
<polyline clip-path="url(#clip572)" style="stroke:#000000; stroke-linecap:butt; stroke-linejoin:round; stroke-width:2; stroke-opacity:0.1; fill:none" points="
  156.598,235.098 2352.76,235.098 
  "/>
<polyline clip-path="url(#clip570)" style="stroke:#000000; stroke-linecap:butt; stroke-linejoin:round; stroke-width:4; stroke-opacity:1; fill:none" points="
  156.598,1486.45 156.598,47.2441 
  "/>
<polyline clip-path="url(#clip570)" style="stroke:#000000; stroke-linecap:butt; stroke-linejoin:round; stroke-width:4; stroke-opacity:1; fill:none" points="
  156.598,1371.76 175.496,1371.76 
  "/>
<polyline clip-path="url(#clip570)" style="stroke:#000000; stroke-linecap:butt; stroke-linejoin:round; stroke-width:4; stroke-opacity:1; fill:none" points="
  156.598,1182.31 175.496,1182.31 
  "/>
<polyline clip-path="url(#clip570)" style="stroke:#000000; stroke-linecap:butt; stroke-linejoin:round; stroke-width:4; stroke-opacity:1; fill:none" points="
  156.598,992.871 175.496,992.871 
  "/>
<polyline clip-path="url(#clip570)" style="stroke:#000000; stroke-linecap:butt; stroke-linejoin:round; stroke-width:4; stroke-opacity:1; fill:none" points="
  156.598,803.428 175.496,803.428 
  "/>
<polyline clip-path="url(#clip570)" style="stroke:#000000; stroke-linecap:butt; stroke-linejoin:round; stroke-width:4; stroke-opacity:1; fill:none" points="
  156.598,613.985 175.496,613.985 
  "/>
<polyline clip-path="url(#clip570)" style="stroke:#000000; stroke-linecap:butt; stroke-linejoin:round; stroke-width:4; stroke-opacity:1; fill:none" points="
  156.598,424.541 175.496,424.541 
  "/>
<polyline clip-path="url(#clip570)" style="stroke:#000000; stroke-linecap:butt; stroke-linejoin:round; stroke-width:4; stroke-opacity:1; fill:none" points="
  156.598,235.098 175.496,235.098 
  "/>
<path clip-path="url(#clip570)" d="M64.6495 1357.56 Q61.0384 1357.56 59.2097 1361.12 Q57.4041 1364.66 57.4041 1371.79 Q57.4041 1378.9 59.2097 1382.46 Q61.0384 1386.01 64.6495 1386.01 Q68.2837 1386.01 70.0892 1382.46 Q71.9179 1378.9 71.9179 1371.79 Q71.9179 1364.66 70.0892 1361.12 Q68.2837 1357.56 64.6495 1357.56 M64.6495 1353.85 Q70.4596 1353.85 73.5152 1358.46 Q76.5938 1363.04 76.5938 1371.79 Q76.5938 1380.52 73.5152 1385.13 Q70.4596 1389.71 64.6495 1389.71 Q58.8393 1389.71 55.7606 1385.13 Q52.7051 1380.52 52.7051 1371.79 Q52.7051 1363.04 55.7606 1358.46 Q58.8393 1353.85 64.6495 1353.85 Z" fill="#000000" fill-rule="evenodd" fill-opacity="1" /><path clip-path="url(#clip570)" d="M84.8114 1383.16 L89.6956 1383.16 L89.6956 1389.04 L84.8114 1389.04 L84.8114 1383.16 Z" fill="#000000" fill-rule="evenodd" fill-opacity="1" /><path clip-path="url(#clip570)" d="M100.691 1385.1 L108.33 1385.1 L108.33 1358.74 L100.02 1360.4 L100.02 1356.14 L108.283 1354.48 L112.959 1354.48 L112.959 1385.1 L120.598 1385.1 L120.598 1389.04 L100.691 1389.04 L100.691 1385.1 Z" fill="#000000" fill-rule="evenodd" fill-opacity="1" /><path clip-path="url(#clip570)" d="M65.0198 1168.11 Q61.4087 1168.11 59.58 1171.68 Q57.7745 1175.22 57.7745 1182.35 Q57.7745 1189.46 59.58 1193.02 Q61.4087 1196.56 65.0198 1196.56 Q68.6541 1196.56 70.4596 1193.02 Q72.2883 1189.46 72.2883 1182.35 Q72.2883 1175.22 70.4596 1171.68 Q68.6541 1168.11 65.0198 1168.11 M65.0198 1164.41 Q70.83 1164.41 73.8855 1169.02 Q76.9642 1173.6 76.9642 1182.35 Q76.9642 1191.08 73.8855 1195.68 Q70.83 1200.27 65.0198 1200.27 Q59.2097 1200.27 56.131 1195.68 Q53.0754 1191.08 53.0754 1182.35 Q53.0754 1173.6 56.131 1169.02 Q59.2097 1164.41 65.0198 1164.41 Z" fill="#000000" fill-rule="evenodd" fill-opacity="1" /><path clip-path="url(#clip570)" d="M85.1818 1193.72 L90.066 1193.72 L90.066 1199.59 L85.1818 1199.59 L85.1818 1193.72 Z" fill="#000000" fill-rule="evenodd" fill-opacity="1" /><path clip-path="url(#clip570)" d="M104.279 1195.66 L120.598 1195.66 L120.598 1199.59 L98.6539 1199.59 L98.6539 1195.66 Q101.316 1192.9 105.899 1188.28 Q110.506 1183.62 111.686 1182.28 Q113.932 1179.76 114.811 1178.02 Q115.714 1176.26 115.714 1174.57 Q115.714 1171.82 113.77 1170.08 Q111.848 1168.34 108.746 1168.34 Q106.547 1168.34 104.094 1169.11 Q101.663 1169.87 98.8854 1171.42 L98.8854 1166.7 Q101.709 1165.57 104.163 1164.99 Q106.617 1164.41 108.654 1164.41 Q114.024 1164.41 117.219 1167.09 Q120.413 1169.78 120.413 1174.27 Q120.413 1176.4 119.603 1178.32 Q118.816 1180.22 116.709 1182.81 Q116.131 1183.48 113.029 1186.7 Q109.927 1189.9 104.279 1195.66 Z" fill="#000000" fill-rule="evenodd" fill-opacity="1" /><path clip-path="url(#clip570)" d="M64.0708 978.67 Q60.4597 978.67 58.631 982.235 Q56.8254 985.777 56.8254 992.906 Q56.8254 1000.01 58.631 1003.58 Q60.4597 1007.12 64.0708 1007.12 Q67.705 1007.12 69.5105 1003.58 Q71.3392 1000.01 71.3392 992.906 Q71.3392 985.777 69.5105 982.235 Q67.705 978.67 64.0708 978.67 M64.0708 974.966 Q69.8809 974.966 72.9365 979.573 Q76.0151 984.156 76.0151 992.906 Q76.0151 1001.63 72.9365 1006.24 Q69.8809 1010.82 64.0708 1010.82 Q58.2606 1010.82 55.1819 1006.24 Q52.1264 1001.63 52.1264 992.906 Q52.1264 984.156 55.1819 979.573 Q58.2606 974.966 64.0708 974.966 Z" fill="#000000" fill-rule="evenodd" fill-opacity="1" /><path clip-path="url(#clip570)" d="M84.2327 1004.27 L89.1169 1004.27 L89.1169 1010.15 L84.2327 1010.15 L84.2327 1004.27 Z" fill="#000000" fill-rule="evenodd" fill-opacity="1" /><path clip-path="url(#clip570)" d="M113.469 991.517 Q116.825 992.235 118.7 994.503 Q120.598 996.772 120.598 1000.11 Q120.598 1005.22 117.08 1008.02 Q113.561 1010.82 107.08 1010.82 Q104.904 1010.82 102.589 1010.38 Q100.297 1009.97 97.8437 1009.11 L97.8437 1004.6 Q99.7882 1005.73 102.103 1006.31 Q104.418 1006.89 106.941 1006.89 Q111.339 1006.89 113.631 1005.15 Q115.945 1003.42 115.945 1000.11 Q115.945 997.05 113.793 995.337 Q111.663 993.601 107.844 993.601 L103.816 993.601 L103.816 989.758 L108.029 989.758 Q111.478 989.758 113.307 988.392 Q115.135 987.003 115.135 984.411 Q115.135 981.749 113.237 980.337 Q111.362 978.902 107.844 978.902 Q105.922 978.902 103.723 979.318 Q101.524 979.735 98.8854 980.615 L98.8854 976.448 Q101.547 975.707 103.862 975.337 Q106.2 974.966 108.26 974.966 Q113.584 974.966 116.686 977.397 Q119.788 979.804 119.788 983.925 Q119.788 986.795 118.145 988.786 Q116.501 990.753 113.469 991.517 Z" fill="#000000" fill-rule="evenodd" fill-opacity="1" /><path clip-path="url(#clip570)" d="M62.9365 789.227 Q59.3254 789.227 57.4967 792.792 Q55.6912 796.333 55.6912 803.463 Q55.6912 810.569 57.4967 814.134 Q59.3254 817.676 62.9365 817.676 Q66.5707 817.676 68.3763 814.134 Q70.205 810.569 70.205 803.463 Q70.205 796.333 68.3763 792.792 Q66.5707 789.227 62.9365 789.227 M62.9365 785.523 Q68.7467 785.523 71.8022 790.13 Q74.8809 794.713 74.8809 803.463 Q74.8809 812.19 71.8022 816.796 Q68.7467 821.379 62.9365 821.379 Q57.1264 821.379 54.0477 816.796 Q50.9921 812.19 50.9921 803.463 Q50.9921 794.713 54.0477 790.13 Q57.1264 785.523 62.9365 785.523 Z" fill="#000000" fill-rule="evenodd" fill-opacity="1" /><path clip-path="url(#clip570)" d="M83.0984 814.828 L87.9827 814.828 L87.9827 820.708 L83.0984 820.708 L83.0984 814.828 Z" fill="#000000" fill-rule="evenodd" fill-opacity="1" /><path clip-path="url(#clip570)" d="M111.015 790.222 L99.2095 808.671 L111.015 808.671 L111.015 790.222 M109.788 786.148 L115.668 786.148 L115.668 808.671 L120.598 808.671 L120.598 812.56 L115.668 812.56 L115.668 820.708 L111.015 820.708 L111.015 812.56 L95.4132 812.56 L95.4132 808.046 L109.788 786.148 Z" fill="#000000" fill-rule="evenodd" fill-opacity="1" /><path clip-path="url(#clip570)" d="M64.418 599.783 Q60.8069 599.783 58.9782 603.348 Q57.1726 606.89 57.1726 614.019 Q57.1726 621.126 58.9782 624.691 Q60.8069 628.232 64.418 628.232 Q68.0522 628.232 69.8578 624.691 Q71.6865 621.126 71.6865 614.019 Q71.6865 606.89 69.8578 603.348 Q68.0522 599.783 64.418 599.783 M64.418 596.08 Q70.2281 596.08 73.2837 600.686 Q76.3624 605.27 76.3624 614.019 Q76.3624 622.746 73.2837 627.353 Q70.2281 631.936 64.418 631.936 Q58.6078 631.936 55.5291 627.353 Q52.4736 622.746 52.4736 614.019 Q52.4736 605.27 55.5291 600.686 Q58.6078 596.08 64.418 596.08 Z" fill="#000000" fill-rule="evenodd" fill-opacity="1" /><path clip-path="url(#clip570)" d="M84.5799 625.385 L89.4641 625.385 L89.4641 631.265 L84.5799 631.265 L84.5799 625.385 Z" fill="#000000" fill-rule="evenodd" fill-opacity="1" /><path clip-path="url(#clip570)" d="M99.6956 596.705 L118.052 596.705 L118.052 600.64 L103.978 600.64 L103.978 609.112 Q104.996 608.765 106.015 608.603 Q107.033 608.418 108.052 608.418 Q113.839 608.418 117.219 611.589 Q120.598 614.76 120.598 620.177 Q120.598 625.756 117.126 628.857 Q113.654 631.936 107.334 631.936 Q105.159 631.936 102.89 631.566 Q100.645 631.195 98.2372 630.455 L98.2372 625.756 Q100.321 626.89 102.543 627.445 Q104.765 628.001 107.242 628.001 Q111.246 628.001 113.584 625.894 Q115.922 623.788 115.922 620.177 Q115.922 616.566 113.584 614.459 Q111.246 612.353 107.242 612.353 Q105.367 612.353 103.492 612.769 Q101.64 613.186 99.6956 614.066 L99.6956 596.705 Z" fill="#000000" fill-rule="evenodd" fill-opacity="1" /><path clip-path="url(#clip570)" d="M63.2606 410.34 Q59.6495 410.34 57.8208 413.905 Q56.0152 417.447 56.0152 424.576 Q56.0152 431.683 57.8208 435.247 Q59.6495 438.789 63.2606 438.789 Q66.8948 438.789 68.7004 435.247 Q70.5291 431.683 70.5291 424.576 Q70.5291 417.447 68.7004 413.905 Q66.8948 410.34 63.2606 410.34 M63.2606 406.636 Q69.0707 406.636 72.1263 411.243 Q75.205 415.826 75.205 424.576 Q75.205 433.303 72.1263 437.909 Q69.0707 442.493 63.2606 442.493 Q57.4504 442.493 54.3717 437.909 Q51.3162 433.303 51.3162 424.576 Q51.3162 415.826 54.3717 411.243 Q57.4504 406.636 63.2606 406.636 Z" fill="#000000" fill-rule="evenodd" fill-opacity="1" /><path clip-path="url(#clip570)" d="M83.4225 435.942 L88.3067 435.942 L88.3067 441.821 L83.4225 441.821 L83.4225 435.942 Z" fill="#000000" fill-rule="evenodd" fill-opacity="1" /><path clip-path="url(#clip570)" d="M109.071 422.678 Q105.922 422.678 104.071 424.831 Q102.242 426.984 102.242 430.734 Q102.242 434.46 104.071 436.636 Q105.922 438.789 109.071 438.789 Q112.219 438.789 114.047 436.636 Q115.899 434.46 115.899 430.734 Q115.899 426.984 114.047 424.831 Q112.219 422.678 109.071 422.678 M118.353 408.025 L118.353 412.285 Q116.594 411.451 114.788 411.011 Q113.006 410.572 111.246 410.572 Q106.617 410.572 104.163 413.697 Q101.733 416.822 101.385 423.141 Q102.751 421.127 104.811 420.062 Q106.871 418.974 109.348 418.974 Q114.557 418.974 117.566 422.146 Q120.598 425.294 120.598 430.734 Q120.598 436.058 117.45 439.275 Q114.302 442.493 109.071 442.493 Q103.075 442.493 99.9039 437.909 Q96.7326 433.303 96.7326 424.576 Q96.7326 416.382 100.621 411.521 Q104.51 406.636 111.061 406.636 Q112.82 406.636 114.603 406.984 Q116.408 407.331 118.353 408.025 Z" fill="#000000" fill-rule="evenodd" fill-opacity="1" /><path clip-path="url(#clip570)" d="M64.3254 220.897 Q60.7143 220.897 58.8856 224.462 Q57.0801 228.003 57.0801 235.133 Q57.0801 242.239 58.8856 245.804 Q60.7143 249.346 64.3254 249.346 Q67.9596 249.346 69.7652 245.804 Q71.5939 242.239 71.5939 235.133 Q71.5939 228.003 69.7652 224.462 Q67.9596 220.897 64.3254 220.897 M64.3254 217.193 Q70.1355 217.193 73.1911 221.8 Q76.2698 226.383 76.2698 235.133 Q76.2698 243.86 73.1911 248.466 Q70.1355 253.049 64.3254 253.049 Q58.5152 253.049 55.4365 248.466 Q52.381 243.86 52.381 235.133 Q52.381 226.383 55.4365 221.8 Q58.5152 217.193 64.3254 217.193 Z" fill="#000000" fill-rule="evenodd" fill-opacity="1" /><path clip-path="url(#clip570)" d="M84.4873 246.499 L89.3715 246.499 L89.3715 252.378 L84.4873 252.378 L84.4873 246.499 Z" fill="#000000" fill-rule="evenodd" fill-opacity="1" /><path clip-path="url(#clip570)" d="M98.3761 217.818 L120.598 217.818 L120.598 219.809 L108.052 252.378 L103.168 252.378 L114.973 221.753 L98.3761 221.753 L98.3761 217.818 Z" fill="#000000" fill-rule="evenodd" fill-opacity="1" /><polyline clip-path="url(#clip572)" style="stroke:#009af9; stroke-linecap:butt; stroke-linejoin:round; stroke-width:4; stroke-opacity:1; fill:none" points="
  218.754,87.9763 239.472,121.477 260.191,154.978 280.909,188.478 301.628,221.979 322.346,255.48 343.064,288.98 363.783,322.481 384.501,355.982 405.22,389.482 
  425.938,422.983 446.657,456.484 467.375,489.984 488.094,523.485 508.812,556.986 529.531,590.486 550.249,623.987 570.968,657.488 591.686,690.988 612.405,724.489 
  633.123,757.99 653.841,791.49 674.56,824.991 695.278,858.492 715.997,891.992 736.715,925.493 757.434,958.994 778.152,992.494 798.871,1025.99 819.589,1059.5 
  840.308,1093 861.026,1126.5 881.745,1160 902.463,1193.5 923.182,1204.2 943.9,1209.63 964.619,1215.05 985.337,1220.48 1006.06,1225.9 1026.77,1231.33 
  1047.49,1236.76 1068.21,1242.18 1088.93,1247.61 1109.65,1253.03 1130.37,1258.46 1151.08,1263.88 1171.8,1269.31 1192.52,1274.74 1213.24,1280.16 1233.96,1285.59 
  1254.68,1291.01 1275.4,1296.44 1296.11,1301.86 1316.83,1307.29 1337.55,1312.72 1358.27,1318.14 1378.99,1323.57 1399.71,1328.99 1420.42,1334.42 1441.14,1339.84 
  1461.86,1345.27 1482.58,1350.7 1503.3,1356.12 1524.02,1361.55 1544.74,1366.97 1565.45,1372.4 1586.17,1377.82 1606.89,1383.25 1627.61,1388.67 1648.33,1394.1 
  1669.05,1399.53 1689.76,1404.95 1710.48,1410.38 1731.2,1415.28 1751.92,1416.41 1772.64,1417.54 1793.36,1418.66 1814.08,1419.79 1834.79,1420.92 1855.51,1422.04 
  1876.23,1423.17 1896.95,1424.3 1917.67,1425.43 1938.39,1426.55 1959.11,1427.68 1979.82,1428.81 2000.54,1429.93 2021.26,1431.06 2041.98,1432.19 2062.7,1433.32 
  2083.42,1434.44 2104.13,1435.57 2124.85,1436.7 2145.57,1437.83 2166.29,1438.95 2187.01,1440.08 2207.73,1441.21 2228.45,1442.33 2249.16,1443.46 2269.88,1444.59 
  2290.6,1445.72 
  "/>
<path clip-path="url(#clip570)" d="
M1987.12 198.898 L2279.55 198.898 L2279.55 95.2176 L1987.12 95.2176  Z
  " fill="#ffffff" fill-rule="evenodd" fill-opacity="1"/>
<polyline clip-path="url(#clip570)" style="stroke:#000000; stroke-linecap:butt; stroke-linejoin:round; stroke-width:4; stroke-opacity:1; fill:none" points="
  1987.12,198.898 2279.55,198.898 2279.55,95.2176 1987.12,95.2176 1987.12,198.898 
  "/>
<polyline clip-path="url(#clip570)" style="stroke:#009af9; stroke-linecap:butt; stroke-linejoin:round; stroke-width:4; stroke-opacity:1; fill:none" points="
  2011.12,147.058 2155.12,147.058 
  "/>
<path clip-path="url(#clip570)" d="M2192.96 166.745 Q2191.16 171.375 2189.44 172.787 Q2187.73 174.199 2184.86 174.199 L2181.46 174.199 L2181.46 170.634 L2183.96 170.634 Q2185.72 170.634 2186.69 169.8 Q2187.66 168.967 2188.84 165.865 L2189.61 163.921 L2179.12 138.412 L2183.63 138.412 L2191.74 158.689 L2199.84 138.412 L2204.35 138.412 L2192.96 166.745 Z" fill="#000000" fill-rule="evenodd" fill-opacity="1" /><path clip-path="url(#clip570)" d="M2211.64 160.402 L2219.28 160.402 L2219.28 134.037 L2210.97 135.703 L2210.97 131.444 L2219.24 129.778 L2223.91 129.778 L2223.91 160.402 L2231.55 160.402 L2231.55 164.338 L2211.64 164.338 L2211.64 160.402 Z" fill="#000000" fill-rule="evenodd" fill-opacity="1" /></svg>
